<svg xmlns="http://www.w3.org/2000/svg" viewBox="0 0 800 500">
  <defs>
    <linearGradient id="bg" x1="0" y1="0" x2="1" y2="1">
      <stop offset="0" stop-color="#059669"/>
      <stop offset="1" stop-color="#10b981"/>
    </linearGradient>
  </defs>
  <rect width="800" height="500" fill="url(#bg)"/>
  <circle cx="690" cy="110" r="150" fill="rgba(255,255,255,0.09)"/>
  <circle cx="110" cy="410" r="160" fill="rgba(0,0,0,0.12)"/>
  <rect x="0" y="440" width="800" height="60" fill="rgba(0,0,0,0.2)"/>
  <rect x="100" y="150" width="600" height="220" rx="14" fill="rgba(0,0,0,0.18)"/>
  <rect x="640" y="110" width="90" height="6" rx="3" fill="rgba(255,255,255,0.35)"/>
  <rect x="130" y="200" width="260" height="16" rx="8" fill="rgba(255,255,255,0.3)"/>
  <ellipse cx="400" cy="310" rx="260" ry="26" fill="#d1fae5"/>
  <ellipse cx="400" cy="310" rx="170" ry="16" fill="#a7f3d0"/>
  <rect x="180" y="298" width="10" height="142" rx="4" fill="#34d399"/>
  <rect x="610" y="298" width="10" height="142" rx="4" fill="#34d399"/>
  <rect x="170" y="330" width="12" height="18" rx="4" fill="#047857"/>
  <rect x="618" y="330" width="12" height="18" rx="4" fill="#047857"/>
  <rect x="320" y="300" width="160" height="80" rx="6" fill="#0f172a"/>
  <rect x="332" y="312" width="136" height="56" rx="4" fill="#34d399"/>
  <rect x="352" y="340" width="96" height="8" rx="4" fill="#064e3b"/>
  <path d="M120 390 q130 -40 260 0 t260 0" fill="none" stroke="rgba(255,255,255,0.5)" stroke-width="6" stroke-linecap="round"/>
  <rect x="280" y="400" width="80" height="10" rx="5" fill="rgba(255,255,255,0.4)"/>
  <text x="400" y="480" font-family="Arial, sans-serif" font-size="20" fill="rgba(255,255,255,0.6)" text-anchor="middle" font-weight="600" letter-spacing="4">D E S K H U B</text>
</svg>